<svg width="1299" height="436" viewBox="0 0 1299 436" fill="none" xmlns="http://www.w3.org/2000/svg">
<path d="M1299 95.6216C1299 148.432 1256.19 191.243 1203.38 191.243H1048.55C1021.71 191.243 996.737 204.971 982.352 227.631C974.376 240.197 970.14 254.773 970.14 269.656V289.456C970.14 370.39 904.529 436 823.595 436H95.6215C42.8112 436 0 393.189 0 340.378C0 287.568 42.8112 244.757 95.6216 244.757H700.671C732.872 244.757 762.836 228.287 780.095 201.101C789.665 186.025 794.747 168.537 794.747 150.681V137.935C794.747 61.7556 856.503 0 932.682 0H1203.38C1256.19 0 1299 42.8112 1299 95.6216Z" fill="black"/>
</svg>
